<?xml version="1.0" encoding="UTF-8"?>
<svg xmlns="http://www.w3.org/2000/svg" viewBox="0 0 219.11 195.06">
  <defs>
    <style>
      .cls-1, .cls-2 {
        fill: #fff;
      }

      .cls-3, .cls-4, .cls-5, .cls-6, .cls-7, .cls-2 {
        stroke: #000;
      }

      .cls-3, .cls-4, .cls-5, .cls-6, .cls-7, .cls-2, .cls-8 {
        stroke-miterlimit: 10;
      }

      .cls-3, .cls-6 {
        fill: none;
      }

      .cls-9 {
        fill: #c7b299;
      }

      .cls-4 {
        fill: #dbc1ac;
      }

      .cls-4, .cls-7 {
        stroke-width: 3px;
      }

      .cls-5, .cls-6, .cls-2, .cls-8 {
        stroke-width: 2px;
      }

      .cls-7 {
        fill: #967259;
      }

      .cls-8 {
        fill: #ff90b9;
        stroke: #ff90b9;
      }
    </style>
  </defs>
  <g id="bear">
    <path id="head" class="cls-7" d="m190.25,128.99c-2.96,33.01-32.1,57.37-65.11,54.41-33.01-2.96-57.37-32.1-54.41-65.11.31-3.42.89-6.74,1.74-9.94.23-.9.48-1.78.76-2.66.63-2.04,1.39-4.05,2.23-5.99,4.32-9.94,11.24-18.41,19.83-24.64,1.92-1.38,3.91-2.65,5.98-3.81.25-.15.52-.29.77-.41,10-5.41,21.63-8.03,33.79-6.94,11.11.99,21.22,4.95,29.65,11.03,13.06,9.39,22.08,23.86,24.4,40.25.64,4.49.78,9.13.36,13.84Z"/>
    <g id="nose">
      <g>
        <path class="cls-9" d="m129,167.57c-.81,0-1.63-.04-2.44-.11-7.18-.64-13.69-4.04-18.31-9.58-4.62-5.53-6.82-12.54-6.17-19.72,1.26-14.02,12.8-24.59,26.86-24.59.81,0,1.63.04,2.44.11,7.18.64,13.69,4.04,18.31,9.58,4.62,5.53,6.82,12.54,6.17,19.72-1.25,14.02-12.8,24.59-26.86,24.59Z"/>
        <path d="m128.94,112.57v2h0c.78,0,1.57.04,2.35.11,6.92.62,13.18,3.9,17.63,9.22,4.45,5.33,6.56,12.07,5.95,18.99-.58,6.51-3.56,12.51-8.39,16.91-4.8,4.37-11.01,6.77-17.47,6.77-.78,0-1.57-.04-2.35-.11-6.92-.62-13.18-3.9-17.63-9.22-4.45-5.33-6.56-12.07-5.95-18.99.58-6.51,3.56-12.51,8.39-16.91,4.8-4.37,11.01-6.77,17.47-6.78v-2m0,0c-14.34,0-26.55,10.95-27.86,25.5-1.38,15.4,9.99,29.01,25.39,30.39.85.08,1.69.11,2.53.11,14.34,0,26.55-10.95,27.86-25.5,1.38-15.4-9.99-29.01-25.39-30.39-.85-.08-1.69-.11-2.53-.11h0Z"/>
      </g>
      <g>
        <path d="m131.1,126.66c-.29,0-.59-.01-.89-.04-1.67-.15-3.2-.7-4.29-1.55-.56-.43-1.48-1.33-1.38-2.47.15-1.68,2.52-2.99,5.4-2.99.29,0,.59.01.89.04,1.67.15,3.2.7,4.29,1.55.56.43,1.48,1.33,1.38,2.47-.15,1.68-2.52,2.99-5.4,2.99Z"/>
        <path d="m129.96,120.61h0c.26,0,.53.01.8.04,1.46.13,2.84.62,3.76,1.34.68.52,1.04,1.11.99,1.59-.09.98-1.92,2.08-4.41,2.08-.26,0-.53-.01-.8-.04-1.46-.13-2.84-.62-3.76-1.34-.68-.52-1.04-1.11-.99-1.59.09-.98,1.92-2.08,4.41-2.08m0-2c-3.42,0-6.2,1.64-6.4,3.9-.22,2.48,2.72,4.76,6.57,5.11.33.03.65.04.97.04,3.42,0,6.2-1.64,6.4-3.9.22-2.48-2.72-4.76-6.57-5.11-.33-.03-.65-.04-.97-.04h0Z"/>
      </g>
      <line class="cls-3" x1="130.13" y1="127.62" x2="126.65" y2="166.46"/>
    </g>
    <g id="eyes">
      <g>
        <path d="m98.25,117.72c-.12,0-.24,0-.36-.02-2.2-.2-3.82-2.14-3.63-4.34.19-2.08,1.9-3.64,3.98-3.64.12,0,.24,0,.36.02,2.2.2,3.82,2.14,3.63,4.34-.19,2.08-1.9,3.64-3.98,3.64Z"/>
        <path d="m98.24,110.72h0c.09,0,.18,0,.27.01,1.65.15,2.87,1.61,2.72,3.26-.14,1.53-1.45,2.73-2.98,2.73-.09,0-.18,0-.27-.01-.8-.07-1.52-.45-2.03-1.06-.51-.61-.76-1.39-.69-2.19.14-1.53,1.45-2.73,2.98-2.73m0-2c-2.56,0-4.74,1.96-4.97,4.55-.25,2.75,1.78,5.18,4.53,5.43.15.01.3.02.45.02,2.56,0,4.74-1.96,4.97-4.55.25-2.75-1.78-5.18-4.53-5.43-.15-.01-.3-.02-.45-.02h0Z"/>
      </g>
      <g>
        <path d="m163.98,123.61c-.12,0-.24,0-.36-.02-1.06-.09-2.03-.6-2.71-1.42-.68-.82-1.01-1.86-.91-2.92.19-2.08,1.9-3.64,3.98-3.64.12,0,.24,0,.36.02,2.2.2,3.82,2.14,3.63,4.34-.18,2.04-1.93,3.64-3.98,3.64Z"/>
        <path d="m163.97,116.61h0c.09,0,.18,0,.27.01,1.65.15,2.87,1.61,2.72,3.26-.14,1.53-1.45,2.73-2.98,2.73-.09,0-.18,0-.27-.01-.8-.07-1.52-.45-2.03-1.06-.51-.61-.76-1.39-.69-2.19.14-1.53,1.45-2.73,2.98-2.73m0-2c-2.56,0-4.74,1.96-4.97,4.55-.25,2.75,1.78,5.18,4.53,5.43.15.01.3.02.45.02,2.56,0,4.74-1.96,4.97-4.55.25-2.75-1.78-5.18-4.53-5.43-.15-.01-.3-.02-.45-.02h0Z"/>
      </g>
    </g>
    <g id="blush">
      <circle class="cls-8" cx="87.31" cy="129.31" r="9.5"/>
      <circle class="cls-8" cx="171.97" cy="136.89" r="9.5"/>
    </g>
    <g id="left_ear" data-name="left ear">
      <path class="cls-7" d="m101.05,70.73c-.25.13-.52.27-.77.41-2.07,1.16-4.06,2.43-5.98,3.81-8.59,6.23-15.5,14.7-19.83,24.64-.85,1.94-1.6,3.95-2.23,5.99-.28.88-.53,1.76-.76,2.66-14.29-2.12-24.61-15.05-23.3-29.64,1.35-15.13,14.71-26.29,29.84-24.94,10.62.95,19.28,7.81,23.03,17.05Z"/>
      <path class="cls-5" d="m89.37,76.64c-6.57,4.77-11.86,11.25-15.17,18.86-7.94-.75-13.79-7.78-13.08-15.73s7.76-13.86,15.74-13.15c5.99.54,10.79,4.64,12.51,10.02Z"/>
    </g>
    <g id="left_ear-2" data-name="left ear">
      <path class="cls-7" d="m190.15,115.15c-2.32-16.38-11.33-30.85-24.4-40.25,4.8-9.19,14.63-15.26,25.68-14.73,15.18.73,26.88,13.61,26.16,28.79-.71,14.72-12.85,26.17-27.43,26.19Z"/>
      <path class="cls-5" d="m176.3,81.83c6,5.47,10.52,12.51,12.96,20.45,7.97.15,14.58-6.18,14.76-14.16s-6.15-14.65-14.16-14.83c-6.01-.14-11.25,3.4-13.56,8.55Z"/>
    </g>
  </g>
  <g id="bread">
    <g id="loaf">
      <ellipse class="cls-4" cx="44.58" cy="140.19" rx="27.59" ry="62.78" transform="translate(-73.77 52.82) rotate(-35.92)"/>
      <path class="cls-6" d="m55.92,109.32c.4,10.22-7.11,18.79-16.77,19.16"/>
      <path class="cls-6" d="m69.09,126.32c.4,10.22-7.11,18.79-16.77,19.16"/>
      <path class="cls-6" d="m79.82,144.92c.4,10.22-7.11,18.79-16.77,19.16"/>
    </g>
  </g>
  <g id="hat">
    <g>
      <path class="cls-2" d="m211.91,54.74c2.75-8.37-3.09-18.29-13.52-22.95-3.21-1.44-6.52-2.25-9.71-2.51.48-9.29-8.64-19.85-22.6-25.16-16.19-6.16-32.72-2.92-36.89,7.23,0,0,0,0,0,0-.81-.4-1.65-.76-2.51-1.09-12.38-4.71-25.62-.56-28.8,9.29-2.69,8.35,3.14,18.22,13.51,22.86,4.96,2.22,10.14,2.97,14.81,2.47-.4,4.35-1.24,9.57-2.99,13.83-1.11,2.71-2.59,5.03-4.56,6.5-8.59,6.4,40.3,31.44,52.51,24.48,7.79-4.44,9-17.95,8.86-27.14.99.51,2.03.99,3.11,1.4,12.35,4.7,25.56.58,28.78-9.22ZM112.18,21.87m59.26,17.91-45.9,11.74c-.82,5.32,21.4,19.63,54.23,17.98"/>
      <path class="cls-6" d="m129.3,11.04c3.16,3.58,4.8,7.29,3.67,8.29"/>
      <path class="cls-6" d="m189.36,28.48c-2.28,4.2-5.2,7.01-6.53,6.29"/>
    </g>
    <rect class="cls-1" x="129.02" y="36.45" width="49" height="14.23" transform="translate(-5.74 33.41) rotate(-12.19)"/>
    <rect class="cls-1" x="121.45" y="39.52" width="19.47" height="6.95" transform="translate(68.14 165.82) rotate(-80.97)"/>
  </g>
</svg>